<svg width="248" height="275" viewBox="0 0 248 275" fill="none" xmlns="http://www.w3.org/2000/svg">
<path d="M2.47826 274L64.4348 78.7145L104.087 90.8692V64.1289L118.13 67.4962C116.478 65.2934 114.165 59.105 118.13 51.9742C109.594 47.9226 93.6783 38.523 98.3043 33.337C102.93 28.151 116.754 31.1762 123.087 33.337L137.13 1.73478C151.449 -0.155951 184.548 0.438279 202.391 17.941L199.913 64.1289C210.101 68.1805 228.991 77.7422 223.043 83.5764C217.096 89.4107 201.29 87.4359 194.13 85.7192L215.609 90.8692L202.391 111.937L230.478 119.23L247 274H2.47826Z" fill="black"/>
<path d="M2.47826 274L64.4348 78.7145L104.087 90.8692V64.1289L118.13 67.4962M0 274H247L230.478 119.23L202.391 111.937L215.609 90.8692L194.13 85.7192M118.13 67.4962C116.478 65.2934 114.165 59.105 118.13 51.9742C109.594 47.9226 93.6783 38.523 98.3043 33.337C102.93 28.151 116.754 31.1762 123.087 33.337L137.13 1.73478C151.449 -0.155951 184.548 0.438279 202.391 17.941L199.913 64.1289C210.101 68.1805 228.991 77.7422 223.043 83.5764C217.096 89.4107 201.29 87.4359 194.13 85.7192M118.13 67.4962L194.13 85.7192" stroke="white" stroke-opacity="0.54"/>
<path d="M68.5652 84.3867L23.9565 237.536L74.3478 98.1621L102.435 93.3002L68.5652 84.3867Z" fill="#F7D059"/>
<path d="M144.565 77.0939L104.087 64.1289V88.4383L137.13 94.9208L108.217 82.7661L137.13 86.8177L108.217 77.0939L139.609 81.1455L108.217 68.9908L144.565 77.0939Z" fill="#F7D059"/>
<path d="M68.5652 84.3867L23.9565 237.536L74.3478 98.1621L102.435 93.3002L68.5652 84.3867Z" stroke="black"/>
<path d="M144.565 77.0939L104.087 64.1289V88.4383L137.13 94.9208L108.217 82.7661L137.13 86.8177L108.217 77.0939L139.609 81.1455L108.217 68.9908L144.565 77.0939Z" stroke="black"/>
<path d="M137.13 2.93175C137.946 10.096 151.975 23.5033 201.565 19.8188C199.934 13.1663 184.763 0.475455 137.13 2.93175Z" fill="#F7D059" stroke="#010101"/>
<path d="M135.541 58.4149C124.307 55.1736 124.802 64.0871 126.454 68.9489L141.324 73.0005C145.95 65.2215 139.396 60.0355 135.541 58.4149Z" fill="#FFFEFE" stroke="black"/>
<path d="M106.832 40.2186C90.3104 29.1984 111.513 31.3052 124.18 33.7361C116.25 37.6256 142.905 56.4249 157.223 65.3383C147.31 61.5569 123.354 51.2389 106.832 40.2186Z" fill="#F7D059" stroke="black"/>
<path d="M128.87 66.6354C128.87 63.124 130.687 58.2081 137.957 66.6354" stroke="black"/>
<path d="M191.941 76.2533C184.184 80.2587 177.761 80.096 175.519 79.514C175.793 81.0651 177.951 84.0699 184.387 83.6802C190.824 83.2906 192.105 78.5666 191.941 76.2533Z" fill="white" stroke="black"/>
<path d="M156.331 69.2763C162.096 75.7541 168.147 77.8723 170.453 78.1217C169.627 79.4717 166.511 81.5122 160.65 78.874C154.788 76.2358 155.328 71.3763 156.331 69.2763Z" fill="white" stroke="black"/>
</svg>
