<svg width="392" height="844" viewBox="0 0 392 844" fill="none" xmlns="http://www.w3.org/2000/svg">
<rect width="392" height="844" fill="#1E1E1E"/>
<rect width="390" height="844" transform="translate(1)" fill="#5D6675"/>
<path d="M1 449.746V393.559L203.453 381L391 421.322V498L203.453 418.017L1 449.746Z" fill="#151E1D" stroke="#151E1D"/>
<path d="M181.853 284.466V414.436L159.37 413.563L165.967 278.353L235.165 260.014V271.803L181.853 284.466Z" fill="#151E1D" stroke="#151E1D"/>
<path d="M242.426 252.267L238.885 251.392L240.59 417.572H244L242.426 357.076V339.875V252.267Z" fill="#151E1D" stroke="#151E1D"/>
<path d="M155.185 355.765V353.295L179.288 363.612L183.038 364.194L201.919 364.92L239.815 374.512V379.162C217.211 377.651 173.977 362.934 155.185 355.765Z" fill="#F7D059" stroke="#F7D059" stroke-width="2"/>
<path d="M199.92 370.996L201.059 365.627L203.829 366.323C204.212 366.419 204.515 366.572 204.737 366.782C204.966 366.988 205.117 367.237 205.191 367.531C205.272 367.82 205.274 368.142 205.199 368.497C205.123 368.852 204.988 369.145 204.792 369.376C204.602 369.603 204.359 369.756 204.065 369.836C203.77 369.916 203.431 369.908 203.048 369.811L201.473 369.416L201.076 371.286L199.92 370.996ZM201.676 368.461L203.096 368.818C203.339 368.879 203.54 368.855 203.699 368.747C203.864 368.64 203.972 368.461 204.026 368.211C204.062 368.038 204.064 367.888 204.031 367.759C203.999 367.63 203.932 367.52 203.832 367.428C203.737 367.338 203.604 367.272 203.433 367.229L202.013 366.872L201.676 368.461ZM207.664 373.04C207.101 372.899 206.636 372.675 206.271 372.369C205.905 372.062 205.657 371.676 205.528 371.209C205.398 370.742 205.399 370.199 205.531 369.578C205.665 368.947 205.883 368.455 206.187 368.102C206.492 367.745 206.869 367.518 207.32 367.423C207.772 367.322 208.28 367.342 208.843 367.484C209.418 367.628 209.885 367.853 210.245 368.158C210.612 368.458 210.86 368.842 210.99 369.309C211.121 369.771 211.119 370.317 210.985 370.948C210.853 371.569 210.635 372.058 210.33 372.416C210.026 372.773 209.647 373.003 209.196 373.103C208.749 373.206 208.239 373.184 207.664 373.04ZM207.867 372.085C208.12 372.149 208.351 372.169 208.558 372.144C208.764 372.119 208.948 372.049 209.108 371.936C209.269 371.822 209.405 371.669 209.516 371.478C209.629 371.281 209.714 371.047 209.771 370.775L209.823 370.533C209.882 370.256 209.9 370.002 209.878 369.772C209.856 369.541 209.796 369.339 209.696 369.165C209.598 368.987 209.461 368.837 209.285 368.716C209.109 368.595 208.894 368.502 208.641 368.439C208.393 368.376 208.165 368.358 207.958 368.383C207.751 368.408 207.568 368.477 207.407 368.59C207.248 368.699 207.112 368.851 207 369.048C206.892 369.247 206.809 369.484 206.75 369.761L206.699 370.003C206.641 370.275 206.621 370.525 206.638 370.754C206.661 370.98 206.721 371.182 206.819 371.361C206.918 371.539 207.055 371.689 207.231 371.81C207.407 371.931 207.619 372.023 207.867 372.085ZM211.354 373.868L212.493 368.5L213.649 368.79L212.721 373.165L215.406 373.839L215.195 374.833L211.354 373.868ZM215.938 375.02L217.077 369.652L218.233 369.942L217.094 375.31L215.938 375.02ZM220.634 376.299C220.08 376.16 219.628 375.944 219.276 375.652C218.924 375.355 218.689 374.975 218.57 374.511C218.455 374.048 218.466 373.498 218.601 372.862C218.8 371.923 219.176 371.283 219.727 370.944C220.285 370.6 220.98 370.533 221.813 370.742C222.268 370.857 222.66 371.038 222.989 371.285C223.318 371.533 223.553 371.839 223.693 372.204C223.839 372.57 223.861 372.991 223.76 373.466L222.597 373.173C222.65 372.923 222.643 372.698 222.576 372.5C222.514 372.303 222.4 372.137 222.232 372.002C222.071 371.862 221.869 371.762 221.626 371.701C221.295 371.618 221.007 371.614 220.762 371.69C220.522 371.767 220.323 371.921 220.166 372.15C220.014 372.376 219.9 372.671 219.822 373.037L219.771 373.279C219.691 373.655 219.676 373.984 219.725 374.265C219.775 374.542 219.89 374.771 220.069 374.953C220.255 375.132 220.513 375.263 220.844 375.346C221.103 375.411 221.337 375.423 221.548 375.382C221.758 375.342 221.933 375.248 222.073 375.102C222.213 374.956 222.309 374.758 222.363 374.507L223.48 374.788C223.379 375.263 223.192 375.631 222.919 375.892C222.651 376.154 222.319 376.318 221.924 376.384C221.529 376.444 221.099 376.416 220.634 376.299ZM223.962 377.036L225.101 371.667L229.353 372.736L229.151 373.69L226.063 372.915L225.809 374.112L228.54 374.798L228.339 375.745L225.608 375.059L225.33 376.366L228.465 377.153L228.261 378.116L223.962 377.036Z" fill="black"/>
<path d="M159.234 422.435L153.325 421.997L163.128 274.782L238.731 251L240.745 430.897L233.359 430.022L235.105 259.608L166.351 277.846L159.234 422.435Z" fill="#A9C3D2" stroke="#A9C3D2" stroke-width="2"/>
<path d="M151 400.974V397.468C151 400.535 210.475 410.905 213.832 410.905C216.177 410.905 232.404 400.487 240.28 394.839V397.907C234.194 402.093 220.383 411.022 213.832 413.242C207.28 415.462 169.214 408.13 151 404.187L152.208 402.726L151 400.974Z" fill="#F7D059" stroke="#F7D059" stroke-width="2"/>
<path d="M165.147 407.02L165.957 402.286L168.406 402.782C168.744 402.851 169.015 402.972 169.217 403.146C169.424 403.317 169.565 403.528 169.641 403.782C169.721 404.031 169.734 404.312 169.681 404.625C169.627 404.938 169.519 405.199 169.355 405.409C169.197 405.615 168.99 405.758 168.735 405.84C168.48 405.921 168.183 405.928 167.844 405.859L166.452 405.578L166.17 407.227L165.147 407.02ZM166.596 404.736L167.851 404.99C168.066 405.033 168.241 405.005 168.377 404.904C168.517 404.803 168.606 404.643 168.644 404.422C168.67 404.27 168.666 404.139 168.633 404.027C168.6 403.916 168.538 403.823 168.447 403.747C168.36 403.672 168.241 403.62 168.09 403.589L166.835 403.335L166.596 404.736ZM171.999 408.492C171.5 408.391 171.086 408.214 170.755 407.962C170.424 407.709 170.194 407.382 170.064 406.98C169.934 406.577 169.916 406.103 170.009 405.555C170.104 404.999 170.279 404.56 170.532 404.24C170.786 403.916 171.109 403.703 171.5 403.601C171.892 403.495 172.338 403.492 172.836 403.593C173.344 403.696 173.761 403.873 174.087 404.125C174.418 404.373 174.649 404.698 174.779 405.1C174.91 405.498 174.928 405.975 174.832 406.531C174.739 407.079 174.565 407.515 174.311 407.839C174.057 408.164 173.733 408.379 173.341 408.485C172.954 408.593 172.506 408.595 171.999 408.492ZM172.143 407.65C172.367 407.696 172.569 407.703 172.749 407.673C172.929 407.643 173.088 407.575 173.224 407.469C173.36 407.364 173.474 407.225 173.565 407.053C173.657 406.876 173.723 406.669 173.764 406.429L173.8 406.215C173.842 405.972 173.849 405.749 173.822 405.549C173.795 405.348 173.735 405.174 173.642 405.027C173.549 404.875 173.424 404.75 173.266 404.651C173.108 404.552 172.916 404.48 172.692 404.435C172.473 404.391 172.273 404.383 172.093 404.414C171.912 404.444 171.754 404.512 171.618 404.617C171.482 404.718 171.368 404.857 171.277 405.034C171.19 405.211 171.125 405.422 171.084 405.666L171.047 405.879C171.006 406.119 170.997 406.338 171.02 406.538C171.048 406.734 171.108 406.908 171.2 407.06C171.292 407.212 171.418 407.337 171.576 407.436C171.734 407.534 171.923 407.606 172.143 407.65ZM175.258 409.066L176.067 404.333L177.089 404.54L176.43 408.397L178.804 408.877L178.654 409.753L175.258 409.066ZM179.311 409.887L180.121 405.153L181.143 405.36L180.334 410.093L179.311 409.887ZM183.467 410.813C182.978 410.714 182.574 410.544 182.255 410.304C181.938 410.059 181.718 409.736 181.597 409.336C181.481 408.936 181.471 408.456 181.567 407.895C181.708 407.067 182.015 406.493 182.486 406.174C182.962 405.852 183.568 405.765 184.305 405.914C184.707 405.996 185.057 406.138 185.353 406.341C185.65 406.544 185.866 406.802 186.002 407.115C186.142 407.429 186.177 407.795 186.105 408.213L185.076 408.005C185.114 407.784 185.1 407.589 185.034 407.418C184.973 407.249 184.867 407.109 184.716 406.997C184.57 406.882 184.389 406.802 184.174 406.759C183.882 406.7 183.629 406.708 183.418 406.784C183.21 406.861 183.042 407.003 182.912 407.21C182.787 407.413 182.697 407.676 182.642 407.998L182.606 408.212C182.549 408.543 182.547 408.831 182.6 409.075C182.654 409.314 182.763 409.51 182.926 409.662C183.094 409.81 183.325 409.914 183.618 409.973C183.847 410.019 184.052 410.02 184.235 409.976C184.417 409.933 184.567 409.844 184.685 409.711C184.802 409.577 184.88 409.4 184.918 409.179L185.906 409.379C185.834 409.798 185.683 410.127 185.453 410.366C185.228 410.606 184.943 410.762 184.599 410.835C184.256 410.904 183.879 410.897 183.467 410.813ZM186.407 411.323L187.216 406.589L190.976 407.35L190.832 408.192L188.101 407.639L187.921 408.695L190.336 409.184L190.193 410.019L187.778 409.53L187.581 410.682L190.353 411.243L190.208 412.092L186.407 411.323Z" fill="black"/>
<path d="M158.44 347.807V343.014C163.055 346.281 214.923 307.332 240.28 287.45V296.503C227.508 312.978 180.398 337.57 158.44 347.807Z" fill="#F7D059" stroke="#F7D059" stroke-width="2"/>
<path d="M175.707 339.801L172.746 336.942L174.581 335.837C174.835 335.685 175.086 335.597 175.335 335.573C175.584 335.545 175.823 335.575 176.053 335.662C176.283 335.745 176.496 335.881 176.691 336.07C176.887 336.258 177.012 336.452 177.066 336.649C177.121 336.842 177.101 337.029 177.007 337.212C176.913 337.395 176.739 337.563 176.485 337.716L175.441 338.344L176.473 339.34L175.707 339.801ZM174.915 337.835L175.856 337.269C176.017 337.172 176.101 337.06 176.109 336.934C176.121 336.805 176.057 336.674 175.919 336.541C175.824 336.449 175.726 336.384 175.625 336.346C175.524 336.307 175.419 336.294 175.309 336.306C175.202 336.316 175.093 336.355 174.979 336.423L174.039 336.989L174.915 337.835ZM180.903 336.755C180.53 336.98 180.151 337.12 179.768 337.174C179.385 337.229 179.008 337.19 178.637 337.057C178.266 336.924 177.909 336.692 177.566 336.361C177.218 336.025 177.004 335.705 176.923 335.402C176.84 335.096 176.879 334.809 177.041 334.54C177.199 334.269 177.465 334.021 177.839 333.796C178.219 333.567 178.599 333.426 178.979 333.374C179.359 333.317 179.734 333.354 180.106 333.487C180.474 333.617 180.832 333.85 181.181 334.187C181.523 334.517 181.736 334.836 181.819 335.142C181.903 335.448 181.865 335.737 181.707 336.008C181.551 336.277 181.284 336.526 180.903 336.755ZM180.377 336.247C180.545 336.146 180.672 336.037 180.758 335.922C180.845 335.807 180.891 335.685 180.896 335.555C180.901 335.426 180.868 335.292 180.798 335.154C180.724 335.014 180.613 334.871 180.463 334.727L180.329 334.597C180.177 334.45 180.019 334.333 179.857 334.246C179.694 334.159 179.531 334.104 179.368 334.08C179.202 334.054 179.035 334.059 178.868 334.097C178.701 334.134 178.533 334.203 178.365 334.305C178.201 334.403 178.075 334.511 177.989 334.626C177.902 334.741 177.856 334.863 177.851 334.993C177.843 335.119 177.876 335.253 177.949 335.394C178.026 335.532 178.141 335.675 178.293 335.822L178.427 335.952C178.577 336.096 178.731 336.213 178.89 336.302C179.05 336.386 179.213 336.442 179.379 336.468C179.545 336.494 179.712 336.489 179.879 336.451C180.046 336.414 180.212 336.346 180.377 336.247ZM183.283 335.242L180.322 332.383L181.088 331.922L183.501 334.252L185.28 333.181L185.828 333.711L183.283 335.242ZM186.32 333.414L183.359 330.555L184.125 330.094L187.086 332.953L186.32 333.414ZM189.497 331.584C189.13 331.805 188.763 331.942 188.396 331.996C188.027 332.047 187.659 332.004 187.295 331.867C186.934 331.728 186.578 331.489 186.227 331.15C185.709 330.65 185.476 330.188 185.527 329.765C185.579 329.337 185.88 328.957 186.432 328.625C186.734 328.444 187.048 328.322 187.374 328.261C187.7 328.2 188.018 328.212 188.328 328.296C188.641 328.378 188.929 328.546 189.191 328.799L188.419 329.263C188.281 329.129 188.13 329.037 187.967 328.987C187.807 328.934 187.641 328.922 187.468 328.949C187.297 328.971 187.13 329.03 186.969 329.127C186.75 329.259 186.604 329.403 186.532 329.559C186.464 329.713 186.465 329.879 186.538 330.056C186.611 330.229 186.748 330.413 186.95 330.607L187.083 330.736C187.291 330.936 187.499 331.084 187.708 331.179C187.915 331.271 188.123 331.31 188.332 331.297C188.542 331.279 188.756 331.204 188.975 331.072C189.147 330.969 189.271 330.856 189.349 330.733C189.427 330.609 189.453 330.481 189.427 330.348C189.4 330.215 189.318 330.082 189.18 329.948L189.92 329.503C190.182 329.756 190.331 330.007 190.366 330.256C190.405 330.503 190.348 330.74 190.194 330.968C190.038 331.193 189.805 331.398 189.497 331.584ZM191.637 330.215L188.676 327.356L191.493 325.661L192.02 326.169L189.974 327.4L190.634 328.038L192.444 326.949L192.966 327.453L191.157 328.542L191.877 329.238L193.954 327.989L194.485 328.501L191.637 330.215Z" fill="black"/>
<path d="M213.026 316.737L208.688 313.376L211.001 311.701C211.321 311.469 211.646 311.323 211.975 311.261C212.305 311.193 212.629 311.201 212.948 311.286C213.267 311.365 213.57 311.516 213.857 311.738C214.143 311.96 214.336 312.196 214.434 312.447C214.533 312.692 214.531 312.94 214.429 313.191C214.326 313.442 214.115 313.683 213.796 313.914L212.48 314.867L213.992 316.038L213.026 316.737ZM211.709 314.269L212.895 313.41C213.098 313.263 213.196 313.107 213.19 312.94C213.189 312.771 213.087 312.608 212.885 312.451C212.745 312.343 212.606 312.271 212.465 312.233C212.325 312.196 212.182 312.192 212.037 312.221C211.895 312.248 211.753 312.313 211.611 312.416L210.425 313.274L211.709 314.269ZM219.587 312.101C219.116 312.442 218.627 312.672 218.122 312.792C217.616 312.912 217.106 312.908 216.591 312.781C216.077 312.655 215.569 312.397 215.067 312.008C214.557 311.613 214.228 311.222 214.081 310.836C213.929 310.447 213.944 310.067 214.125 309.695C214.302 309.321 214.625 308.963 215.096 308.622C215.576 308.275 216.066 308.043 216.568 307.927C217.069 307.804 217.577 307.806 218.092 307.932C218.602 308.056 219.112 308.315 219.622 308.71C220.124 309.099 220.451 309.488 220.602 309.877C220.754 310.267 220.741 310.649 220.565 311.023C220.392 311.394 220.066 311.754 219.587 312.101ZM218.815 311.503C219.027 311.35 219.183 311.193 219.284 311.031C219.385 310.87 219.43 310.704 219.42 310.535C219.41 310.365 219.349 310.194 219.236 310.023C219.119 309.849 218.951 309.676 218.732 309.506L218.536 309.355C218.313 309.182 218.086 309.048 217.857 308.955C217.628 308.862 217.403 308.81 217.181 308.8C216.955 308.787 216.733 308.815 216.514 308.885C216.295 308.955 216.08 309.067 215.868 309.22C215.66 309.37 215.506 309.526 215.406 309.688C215.305 309.849 215.259 310.014 215.269 310.184C215.275 310.351 215.337 310.521 215.453 310.696C215.574 310.867 215.747 311.039 215.97 311.212L216.166 311.364C216.385 311.534 216.607 311.667 216.832 311.764C217.057 311.854 217.282 311.905 217.508 311.918C217.734 311.932 217.957 311.903 218.176 311.833C218.395 311.763 218.608 311.653 218.815 311.503ZM222.576 309.823L218.237 306.462L219.203 305.763L222.738 308.502L224.98 306.879L225.783 307.501L222.576 309.823ZM226.404 307.051L222.066 303.691L223.031 302.992L227.37 306.352L226.404 307.051ZM230.418 304.259C229.956 304.594 229.483 304.819 228.999 304.936C228.51 305.05 228.013 305.04 227.507 304.907C227.005 304.771 226.497 304.504 225.983 304.105C225.224 303.518 224.851 302.944 224.865 302.384C224.878 301.819 225.233 301.284 225.928 300.781C226.308 300.505 226.713 300.307 227.142 300.186C227.571 300.065 227.998 300.04 228.424 300.111C228.854 300.179 229.261 300.361 229.644 300.659L228.672 301.362C228.47 301.206 228.256 301.105 228.031 301.059C227.809 301.011 227.585 301.015 227.358 301.072C227.131 301.123 226.916 301.222 226.713 301.369C226.436 301.569 226.26 301.776 226.184 301.989C226.112 302.198 226.136 302.415 226.257 302.637C226.377 302.854 226.585 303.076 226.88 303.305L227.076 303.456C227.379 303.692 227.678 303.858 227.971 303.955C228.259 304.05 228.543 304.075 228.821 304.032C229.099 303.982 229.377 303.857 229.653 303.657C229.869 303.5 230.021 303.336 230.11 303.165C230.198 302.994 230.215 302.823 230.163 302.653C230.11 302.482 229.982 302.319 229.78 302.162L230.713 301.487C231.097 301.784 231.329 302.093 231.409 302.414C231.493 302.732 231.448 303.049 231.272 303.366C231.092 303.68 230.807 303.977 230.418 304.259ZM233.106 302.2L228.767 298.839L232.318 296.268L233.09 296.866L230.511 298.733L231.478 299.483L233.759 297.831L234.525 298.424L232.244 300.075L233.3 300.893L235.918 298.998L236.696 299.601L233.106 302.2Z" fill="black"/>
<path d="M32.3749 411.508L22.0957 416.511L23.3058 419.75L76.579 416.935L84.0966 419.632L81.7905 421.009L71.277 421.743C71.5452 419.555 70.7716 419.126 70.3512 419.185L63.4146 420.072L62.0919 421.786C61.2006 422.884 61.7288 423.724 62.1044 424.007L64.2856 425.363L83.7075 425.27L96.3773 421.452L100.624 415.966C104.138 417.487 111.411 419.092 112.389 413.348C113.366 407.604 106.284 408.367 102.621 409.466L102.744 406.391C102.873 404.511 102.612 403.772 102.377 403.489L97.4468 399.584L85.7347 399.127L82.5161 400.338L78.1909 404.287L83.5984 405.799L86.5279 403.052L91.8634 404.222L92.9237 405.754L82.8425 408.535L78.4137 406.507L71.0873 400.392L53.1771 407.481L43.8537 407.867L40.2192 409.934L49.9814 412.791L53.6851 410.553L63.6242 407.431C64.4641 407.154 65.3777 407.537 65.7296 407.763L69.0441 411.163L68.2085 412.192L48.2333 413.653L34.8385 413.205L32.3749 411.508Z" stroke="white" stroke-width="2"/>
</svg>
