<svg width="1920" height="989" viewBox="0 0 1920 989" fill="none" xmlns="http://www.w3.org/2000/svg">
<g clip-path="url(#clip0_5_4)">
<rect width="1920" height="989" fill="#5D6675"/>
<path d="M1 952.25V909.99L997.173 900.543L1920 930.871V988.543L997.173 928.385L1 952.25Z" fill="#151E1D" stroke="#151E1D"/>
<path d="M1528.67 371.71V920.418L1417.33 916.732L1450 345.903L1792.67 268.482V318.253L1528.67 371.71Z" fill="#151E1D" stroke="#151E1D"/>
<path d="M1829.33 236.53L1811.33 232.843L1820 933.322H1837.33L1829.33 678.323V605.817V236.53Z" fill="#151E1D" stroke="#151E1D"/>
<path d="M1396 672.179V661.733L1516 705.359L1534.67 707.817L1628.67 710.889L1817.33 751.443V771.106C1704.8 764.716 1489.56 702.492 1396 672.179Z" fill="#F7D059" stroke="#F7D059" stroke-width="2"/>
<path d="M1703.45 741.412L1705.45 733.427L1709.64 734.318C1710.22 734.442 1710.68 734.653 1711 734.952C1711.34 735.244 1711.56 735.606 1711.66 736.035C1711.77 736.459 1711.76 736.934 1711.62 737.462C1711.49 737.99 1711.27 738.429 1710.96 738.78C1710.66 739.125 1710.28 739.363 1709.83 739.495C1709.38 739.628 1708.86 739.632 1708.28 739.509L1705.9 739.002L1705.2 741.784L1703.45 741.412ZM1706.25 737.582L1708.4 738.039C1708.77 738.117 1709.08 738.073 1709.33 737.905C1709.58 737.738 1709.76 737.469 1709.85 737.097C1709.91 736.84 1709.92 736.618 1709.88 736.429C1709.84 736.24 1709.74 736.08 1709.59 735.951C1709.45 735.823 1709.25 735.731 1708.99 735.676L1706.85 735.219L1706.25 737.582ZM1715.16 744.051C1714.31 743.87 1713.61 743.562 1713.07 743.128C1712.53 742.693 1712.17 742.135 1711.99 741.452C1711.82 740.769 1711.85 739.966 1712.08 739.042C1712.31 738.103 1712.67 737.366 1713.15 736.831C1713.63 736.287 1714.22 735.934 1714.91 735.771C1715.61 735.6 1716.38 735.605 1717.23 735.786C1718.1 735.971 1718.8 736.28 1719.34 736.713C1719.88 737.139 1720.24 737.694 1720.42 738.377C1720.59 739.052 1720.56 739.859 1720.33 740.798C1720.1 741.721 1719.74 742.455 1719.26 742.998C1718.78 743.541 1718.19 743.898 1717.49 744.069C1716.81 744.242 1716.03 744.236 1715.16 744.051ZM1715.52 742.631C1715.9 742.713 1716.25 742.73 1716.57 742.683C1716.88 742.636 1717.17 742.524 1717.42 742.349C1717.67 742.173 1717.88 741.941 1718.06 741.652C1718.24 741.356 1718.39 741.006 1718.49 740.602L1718.58 740.241C1718.68 739.83 1718.72 739.454 1718.7 739.115C1718.68 738.775 1718.59 738.479 1718.45 738.228C1718.31 737.969 1718.11 737.755 1717.85 737.584C1717.58 737.414 1717.26 737.288 1716.88 737.207C1716.5 737.127 1716.15 737.11 1715.84 737.157C1715.52 737.204 1715.24 737.316 1714.99 737.491C1714.74 737.659 1714.52 737.891 1714.34 738.188C1714.17 738.486 1714.03 738.841 1713.93 739.252L1713.84 739.613C1713.74 740.017 1713.69 740.387 1713.71 740.726C1713.73 741.058 1713.81 741.353 1713.96 741.612C1714.1 741.871 1714.3 742.085 1714.56 742.256C1714.82 742.426 1715.14 742.551 1715.52 742.631ZM1720.75 745.093L1722.75 737.108L1724.5 737.48L1722.87 743.987L1726.93 744.851L1726.56 746.329L1720.75 745.093ZM1727.68 746.569L1729.68 738.583L1731.43 738.955L1729.43 746.941L1727.68 746.569ZM1734.78 748.226C1733.94 748.048 1733.26 747.752 1732.74 747.339C1732.22 746.917 1731.88 746.367 1731.72 745.687C1731.57 745.009 1731.61 744.196 1731.85 743.25C1732.2 741.853 1732.8 740.89 1733.66 740.362C1734.53 739.827 1735.59 739.694 1736.85 739.962C1737.54 740.108 1738.13 740.356 1738.62 740.706C1739.11 741.055 1739.45 741.496 1739.65 742.028C1739.85 742.562 1739.87 743.182 1739.69 743.888L1737.93 743.513C1738.02 743.141 1738.02 742.81 1737.93 742.521C1737.84 742.233 1737.68 741.993 1737.43 741.801C1737.19 741.603 1736.89 741.465 1736.52 741.387C1736.02 741.28 1735.58 741.289 1735.2 741.413C1734.83 741.539 1734.52 741.775 1734.27 742.122C1734.03 742.463 1733.84 742.905 1733.7 743.448L1733.61 743.809C1733.47 744.368 1733.43 744.854 1733.5 745.267C1733.56 745.673 1733.72 746.006 1733.99 746.267C1734.26 746.522 1734.65 746.702 1735.15 746.809C1735.54 746.892 1735.9 746.898 1736.22 746.828C1736.54 746.758 1736.81 746.611 1737.03 746.388C1737.26 746.166 1737.41 745.868 1737.51 745.496L1739.2 745.855C1739.02 746.561 1738.72 747.114 1738.29 747.513C1737.86 747.914 1737.35 748.172 1736.74 748.288C1736.14 748.397 1735.49 748.376 1734.78 748.226ZM1739.82 749.152L1741.82 741.166L1748.25 742.535L1747.9 743.955L1743.23 742.961L1742.78 744.742L1746.91 745.621L1746.56 747.03L1742.43 746.151L1741.94 748.095L1746.68 749.104L1746.32 750.535L1739.82 749.152Z" fill="black"/>
<path d="M1415.33 952.985L1386 951.141L1434.67 331.156L1810 231L1820 988.623L1783.33 984.936L1792 267.253L1450.67 344.06L1415.33 952.985Z" fill="#A9C3D2" stroke="#A9C3D2" stroke-width="2"/>
<path d="M1375.33 863.274V848.527C1375.33 861.431 1670.67 905.057 1687.33 905.057C1698.98 905.057 1779.56 861.226 1818.67 837.467V850.371C1788.44 867.985 1719.87 905.549 1687.33 914.888C1654.8 924.228 1465.78 893.382 1375.33 876.792L1381.33 870.648L1375.33 863.274Z" fill="#F7D059" stroke="#F7D059" stroke-width="2"/>
<path d="M1428.56 877.898L1430.19 869.828L1434.41 870.552C1434.99 870.652 1435.46 870.845 1435.8 871.131C1436.15 871.41 1436.38 871.763 1436.5 872.189C1436.63 872.608 1436.64 873.084 1436.53 873.618C1436.43 874.151 1436.22 874.599 1435.93 874.963C1435.65 875.32 1435.28 875.573 1434.83 875.724C1434.39 875.875 1433.87 875.9 1433.29 875.8L1430.89 875.388L1430.32 878.2L1428.56 877.898ZM1431.18 873.953L1433.34 874.324C1433.71 874.388 1434.02 874.331 1434.26 874.153C1434.51 873.976 1434.67 873.7 1434.74 873.323C1434.8 873.064 1434.8 872.841 1434.74 872.654C1434.69 872.467 1434.59 872.311 1434.44 872.187C1434.29 872.065 1434.09 871.981 1433.83 871.936L1431.66 871.565L1431.18 873.953ZM1440.37 880.068C1439.51 879.92 1438.8 879.64 1438.24 879.228C1437.67 878.815 1437.29 878.271 1437.08 877.594C1436.88 876.918 1436.87 876.113 1437.06 875.18C1437.25 874.231 1437.57 873.479 1438.03 872.925C1438.48 872.362 1439.05 871.985 1439.74 871.794C1440.42 871.595 1441.19 871.569 1442.05 871.716C1442.93 871.866 1443.64 872.147 1444.19 872.558C1444.76 872.963 1445.14 873.503 1445.35 874.18C1445.56 874.848 1445.56 875.657 1445.37 876.606C1445.18 877.539 1444.86 878.287 1444.41 878.85C1443.95 879.412 1443.38 879.793 1442.69 879.992C1442.02 880.193 1441.24 880.218 1440.37 880.068ZM1440.66 878.633C1441.04 878.699 1441.39 878.702 1441.71 878.642C1442.02 878.583 1442.3 878.46 1442.54 878.274C1442.78 878.088 1442.98 877.847 1443.15 877.551C1443.32 877.247 1443.44 876.891 1443.52 876.484L1443.6 876.119C1443.68 875.703 1443.71 875.326 1443.67 874.987C1443.63 874.648 1443.53 874.356 1443.38 874.11C1443.23 873.857 1443.02 873.65 1442.75 873.49C1442.48 873.33 1442.15 873.217 1441.76 873.151C1441.38 873.086 1441.04 873.084 1440.72 873.144C1440.41 873.203 1440.13 873.326 1439.89 873.512C1439.65 873.69 1439.45 873.931 1439.28 874.235C1439.12 874.54 1439 874.9 1438.91 875.316L1438.84 875.681C1438.76 876.088 1438.73 876.461 1438.76 876.799C1438.8 877.13 1438.9 877.423 1439.05 877.676C1439.2 877.929 1439.41 878.136 1439.68 878.296C1439.95 878.455 1440.28 878.568 1440.66 878.633ZM1445.99 880.886L1447.62 872.816L1449.38 873.118L1448.05 879.694L1452.14 880.395L1451.84 881.889L1445.99 880.886ZM1452.98 882.084L1454.61 874.014L1456.37 874.316L1454.74 882.386L1452.98 882.084ZM1460.14 883.457C1459.29 883.313 1458.6 883.044 1458.06 882.651C1457.52 882.25 1457.16 881.713 1456.97 881.039C1456.78 880.367 1456.79 879.553 1456.98 878.596C1457.27 877.184 1457.82 876.197 1458.66 875.634C1459.5 875.064 1460.55 874.888 1461.82 875.106C1462.52 875.225 1463.12 875.449 1463.62 875.779C1464.12 876.109 1464.49 876.536 1464.71 877.061C1464.94 877.586 1464.98 878.206 1464.83 878.92L1463.06 878.616C1463.14 878.239 1463.12 877.908 1463.02 877.622C1462.92 877.338 1462.74 877.105 1462.48 876.923C1462.24 876.734 1461.93 876.608 1461.56 876.545C1461.05 876.458 1460.61 876.485 1460.24 876.624C1459.88 876.764 1459.58 877.013 1459.35 877.371C1459.12 877.721 1458.95 878.171 1458.84 878.72L1458.77 879.085C1458.65 879.649 1458.64 880.137 1458.72 880.549C1458.8 880.952 1458.98 881.279 1459.25 881.529C1459.54 881.773 1459.93 881.938 1460.44 882.024C1460.83 882.092 1461.19 882.084 1461.51 882.001C1461.83 881.917 1462.09 881.76 1462.3 881.528C1462.51 881.296 1462.65 880.992 1462.73 880.616L1464.43 880.908C1464.29 881.621 1464.01 882.186 1463.6 882.603C1463.2 883.021 1462.7 883.3 1462.1 883.441C1461.5 883.573 1460.85 883.579 1460.14 883.457ZM1465.21 884.181L1466.84 876.111L1473.32 877.223L1473.03 878.658L1468.32 877.851L1467.96 879.65L1472.12 880.364L1471.83 881.787L1467.67 881.074L1467.27 883.038L1472.05 883.857L1471.76 885.304L1465.21 884.181Z" fill="black"/>
<path d="M0 626.095V578.167C244.267 745.299 392.214 752.1 451.333 757.588C636.667 774.793 1513.33 659.275 1920 583.697V664.805C1858 674.636 1669.09 709.201 1405.33 744.07C1075.33 787.696 513.104 828.323 375.333 807.973C271.333 792.612 79.3333 682.01 0 626.095Z" fill="#F7D059" stroke="#F7D059" stroke-width="2"/>
<path d="M143.081 694.632L149.244 683.932L155.016 686.757C155.814 687.147 156.393 687.617 156.753 688.167C157.13 688.711 157.304 689.309 157.274 689.961C157.261 690.608 157.05 691.285 156.643 691.992C156.236 692.699 155.734 693.246 155.137 693.634C154.558 694.017 153.909 694.219 153.192 694.242C152.474 694.264 151.717 694.08 150.919 693.689L147.637 692.083L145.49 695.811L143.081 694.632ZM148.733 690.18L151.692 691.628C152.199 691.876 152.667 691.926 153.099 691.777C153.541 691.633 153.905 691.312 154.193 690.813C154.39 690.47 154.496 690.155 154.509 689.868C154.522 689.581 154.446 689.317 154.281 689.076C154.127 688.841 153.872 688.636 153.516 688.462L150.557 687.014L148.733 690.18ZM159.151 702.736C157.977 702.161 157.08 701.463 156.462 700.641C155.844 699.818 155.546 698.886 155.566 697.843C155.587 696.8 155.953 695.66 156.666 694.422C157.391 693.164 158.213 692.24 159.133 691.651C160.059 691.051 161.062 690.762 162.141 690.783C163.226 690.794 164.356 691.087 165.531 691.662C166.727 692.248 167.629 692.949 168.236 693.766C168.86 694.578 169.162 695.505 169.141 696.548C169.127 697.581 168.757 698.726 168.032 699.984C167.319 701.222 166.5 702.14 165.574 702.74C164.648 703.34 163.643 703.635 162.558 703.623C161.483 703.618 160.348 703.322 159.151 702.736ZM160.248 700.833C160.776 701.092 161.281 701.246 161.764 701.296C162.247 701.345 162.706 701.29 163.144 701.131C163.581 700.972 163.989 700.718 164.369 700.371C164.755 700.013 165.103 699.564 165.415 699.023L165.693 698.54C166.011 697.989 166.222 697.466 166.328 696.971C166.433 696.476 166.432 696.022 166.324 695.61C166.223 695.187 166.014 694.805 165.699 694.464C165.384 694.123 164.963 693.824 164.435 693.565C163.917 693.312 163.417 693.161 162.935 693.111C162.452 693.061 161.992 693.116 161.555 693.276C161.124 693.424 160.715 693.678 160.329 694.036C159.954 694.399 159.608 694.856 159.291 695.407L159.012 695.89C158.701 696.431 158.487 696.946 158.371 697.436C158.271 697.92 158.272 698.374 158.374 698.797C158.476 699.22 158.684 699.602 158.999 699.943C159.314 700.283 159.73 700.58 160.248 700.833ZM166.906 706.291L173.07 695.592L175.479 696.77L170.456 705.489L176.05 708.227L174.909 710.208L166.906 706.291ZM176.459 710.966L182.622 700.266L185.031 701.445L178.868 712.145L176.459 710.966ZM186.177 715.962C185.024 715.397 184.149 714.722 183.551 713.937C182.959 713.141 182.685 712.226 182.727 711.194C182.78 710.167 183.171 709.019 183.902 707.75C184.98 705.879 186.254 704.723 187.724 704.282C189.21 703.837 190.821 704.038 192.557 704.888C193.505 705.352 194.267 705.924 194.842 706.606C195.416 707.287 195.74 708.045 195.811 708.88C195.894 709.72 195.663 710.613 195.118 711.559L192.692 710.372C192.98 709.873 193.115 709.399 193.097 708.951C193.09 708.507 192.943 708.102 192.657 707.736C192.387 707.364 191.999 707.054 191.493 706.806C190.803 706.469 190.157 706.319 189.554 706.358C188.963 706.401 188.412 706.625 187.903 707.029C187.411 707.428 186.955 707.991 186.536 708.719L186.257 709.203C185.826 709.951 185.571 710.633 185.493 711.248C185.422 711.853 185.526 712.391 185.808 712.862C186.106 713.327 186.6 713.729 187.29 714.067C187.829 714.33 188.348 714.471 188.849 714.49C189.35 714.508 189.807 714.399 190.22 714.161C190.633 713.923 190.983 713.555 191.271 713.056L193.599 714.195C193.054 715.141 192.386 715.821 191.596 716.234C190.816 716.652 189.959 716.832 189.025 716.775C188.097 716.708 187.147 716.436 186.177 715.962ZM193.179 719.148L199.343 708.448L208.203 712.784L207.107 714.687L200.672 711.538L199.297 713.924L204.988 716.709L203.901 718.597L198.21 715.812L196.709 718.416L203.241 721.613L202.136 723.531L193.179 719.148Z" fill="black"/>
<path d="M1405.33 626.094V609.504C1428.27 620.81 1686 485.999 1812 417.18V448.517C1748.53 505.538 1514.44 590.661 1405.33 626.094Z" fill="#F7D059" stroke="#F7D059" stroke-width="2"/>
<path d="M1477.59 594.432L1475.87 590.688L1477.87 589.913C1478.15 589.806 1478.4 589.768 1478.63 589.799C1478.86 589.825 1479.06 589.91 1479.24 590.056C1479.42 590.197 1479.57 590.391 1479.68 590.638C1479.79 590.885 1479.84 591.121 1479.82 591.346C1479.81 591.566 1479.73 591.763 1479.59 591.939C1479.44 592.115 1479.23 592.256 1478.96 592.363L1477.82 592.804L1478.42 594.108L1477.59 594.432ZM1477.52 592.138L1478.54 591.741C1478.72 591.673 1478.83 591.572 1478.88 591.437C1478.93 591.301 1478.92 591.146 1478.84 590.971C1478.78 590.851 1478.71 590.759 1478.64 590.695C1478.56 590.631 1478.47 590.593 1478.37 590.581C1478.27 590.568 1478.16 590.585 1478.04 590.633L1477.01 591.03L1477.52 592.138ZM1483.21 592.324C1482.81 592.482 1482.42 592.547 1482.06 592.52C1481.7 592.492 1481.38 592.365 1481.09 592.139C1480.8 591.912 1480.56 591.582 1480.36 591.149C1480.16 590.709 1480.08 590.317 1480.1 589.972C1480.13 589.624 1480.26 589.323 1480.49 589.071C1480.72 588.815 1481.04 588.608 1481.44 588.45C1481.86 588.289 1482.24 588.223 1482.6 588.252C1482.95 588.276 1483.28 588.401 1483.56 588.628C1483.85 588.851 1484.09 589.182 1484.3 589.623C1484.49 590.056 1484.58 590.446 1484.55 590.794C1484.53 591.142 1484.4 591.445 1484.17 591.701C1483.95 591.956 1483.63 592.164 1483.21 592.324ZM1482.91 591.658C1483.09 591.588 1483.24 591.5 1483.35 591.395C1483.47 591.291 1483.55 591.17 1483.6 591.031C1483.64 590.893 1483.66 590.742 1483.64 590.578C1483.62 590.41 1483.57 590.231 1483.48 590.042L1483.4 589.873C1483.31 589.68 1483.21 589.519 1483.1 589.388C1482.98 589.258 1482.85 589.162 1482.71 589.1C1482.57 589.034 1482.42 589.003 1482.26 589.005C1482.1 589.008 1481.93 589.045 1481.75 589.116C1481.57 589.185 1481.42 589.272 1481.31 589.376C1481.19 589.481 1481.11 589.602 1481.06 589.74C1481.02 589.875 1481 590.026 1481.02 590.194C1481.04 590.36 1481.1 590.54 1481.19 590.733L1481.27 590.902C1481.35 591.091 1481.45 591.252 1481.56 591.384C1481.68 591.51 1481.81 591.606 1481.95 591.672C1482.09 591.738 1482.24 591.769 1482.4 591.767C1482.56 591.764 1482.73 591.728 1482.91 591.658ZM1485.83 591.232L1484.12 587.488L1484.95 587.165L1486.34 590.215L1488.28 589.464L1488.6 590.157L1485.83 591.232ZM1489.13 589.949L1487.42 586.205L1488.26 585.882L1489.97 589.625L1489.13 589.949ZM1492.56 588.694C1492.16 588.849 1491.79 588.914 1491.45 588.89C1491.1 588.862 1490.79 588.733 1490.51 588.503C1490.23 588.272 1489.99 587.935 1489.79 587.491C1489.49 586.836 1489.43 586.287 1489.61 585.843C1489.8 585.394 1490.19 585.053 1490.79 584.82C1491.12 584.692 1491.44 584.633 1491.75 584.64C1492.06 584.648 1492.34 584.732 1492.59 584.893C1492.84 585.051 1493.04 585.296 1493.2 585.628L1492.36 585.953C1492.28 585.779 1492.17 585.646 1492.04 585.555C1491.92 585.462 1491.77 585.411 1491.61 585.401C1491.45 585.386 1491.28 585.413 1491.11 585.481C1490.87 585.574 1490.69 585.696 1490.58 585.848C1490.46 585.998 1490.41 586.177 1490.42 586.384C1490.43 586.586 1490.49 586.815 1490.61 587.069L1490.68 587.238C1490.8 587.5 1490.94 587.706 1491.1 587.855C1491.25 588.001 1491.43 588.09 1491.62 588.123C1491.81 588.151 1492.02 588.119 1492.26 588.026C1492.45 587.954 1492.6 587.86 1492.71 587.745C1492.82 587.629 1492.88 587.497 1492.9 587.348C1492.92 587.199 1492.89 587.037 1492.81 586.862L1493.62 586.55C1493.77 586.881 1493.82 587.184 1493.77 587.461C1493.72 587.735 1493.6 587.978 1493.38 588.189C1493.17 588.395 1492.9 588.564 1492.56 588.694ZM1494.92 587.703L1493.21 583.959L1496.27 582.769L1496.58 583.435L1494.35 584.299L1494.73 585.134L1496.7 584.37L1497 585.03L1495.03 585.794L1495.45 586.706L1497.71 585.828L1498.02 586.5L1494.92 587.703Z" fill="black"/>
<path d="M1697.3 500.994L1692.94 494.013L1696.72 492.004C1697.25 491.727 1697.74 491.591 1698.2 491.597C1698.67 491.593 1699.1 491.713 1699.49 491.959C1699.88 492.193 1700.22 492.542 1700.51 493.003C1700.8 493.464 1700.95 493.919 1700.98 494.366C1701.01 494.803 1700.9 495.212 1700.66 495.593C1700.42 495.974 1700.04 496.304 1699.51 496.581L1697.36 497.723L1698.88 500.156L1697.3 500.994ZM1696.59 496.482L1698.52 495.452C1698.86 495.276 1699.05 495.049 1699.12 494.772C1699.19 494.492 1699.12 494.188 1698.91 493.863C1698.77 493.639 1698.62 493.473 1698.45 493.365C1698.28 493.257 1698.09 493.204 1697.88 493.205C1697.68 493.202 1697.47 493.263 1697.23 493.386L1695.29 494.416L1696.59 496.482ZM1707.98 495.485C1707.21 495.894 1706.47 496.115 1705.74 496.146C1705.02 496.178 1704.34 496.005 1703.71 495.626C1703.08 495.248 1702.51 494.655 1702.01 493.848C1701.49 493.027 1701.22 492.273 1701.19 491.587C1701.15 490.893 1701.33 490.269 1701.72 489.715C1702.12 489.154 1702.7 488.669 1703.47 488.26C1704.25 487.844 1705 487.622 1705.72 487.594C1706.44 487.555 1707.11 487.725 1707.75 488.104C1708.37 488.475 1708.94 489.071 1709.46 489.892C1709.96 490.7 1710.23 491.45 1710.27 492.144C1710.31 492.837 1710.13 493.464 1709.74 494.025C1709.35 494.582 1708.77 495.069 1707.98 495.485ZM1707.21 494.244C1707.55 494.06 1707.83 493.851 1708.03 493.618C1708.23 493.384 1708.36 493.125 1708.42 492.841C1708.48 492.558 1708.47 492.256 1708.39 491.936C1708.31 491.609 1708.16 491.269 1707.94 490.916L1707.74 490.601C1707.52 490.241 1707.27 489.946 1707 489.717C1706.74 489.488 1706.46 489.328 1706.17 489.239C1705.87 489.143 1705.57 489.117 1705.25 489.16C1704.92 489.204 1704.59 489.318 1704.24 489.502C1703.91 489.682 1703.63 489.889 1703.43 490.123C1703.23 490.356 1703.1 490.615 1703.04 490.899C1702.98 491.176 1702.99 491.478 1703.07 491.805C1703.16 492.128 1703.32 492.469 1703.54 492.829L1703.74 493.144C1703.96 493.497 1704.2 493.79 1704.46 494.023C1704.72 494.246 1705 494.405 1705.29 494.501C1705.59 494.597 1705.9 494.624 1706.22 494.58C1706.54 494.536 1706.87 494.424 1707.21 494.244ZM1712.92 492.702L1708.56 485.721L1710.14 484.883L1713.69 490.571L1717.36 488.624L1718.17 489.917L1712.92 492.702ZM1719.18 489.378L1714.82 482.397L1716.4 481.558L1720.76 488.539L1719.18 489.378ZM1725.7 486.08C1724.94 486.481 1724.22 486.699 1723.53 486.733C1722.83 486.76 1722.17 486.581 1721.55 486.195C1720.94 485.806 1720.38 485.197 1719.86 484.369C1719.1 483.148 1718.84 482.077 1719.1 481.157C1719.35 480.226 1720.05 479.459 1721.19 478.855C1721.81 478.525 1722.43 478.33 1723.05 478.271C1723.67 478.212 1724.25 478.311 1724.79 478.568C1725.33 478.821 1725.8 479.256 1726.18 479.874L1724.59 480.718C1724.39 480.392 1724.15 480.155 1723.87 480.006C1723.59 479.854 1723.29 479.787 1722.97 479.807C1722.64 479.816 1722.31 479.909 1721.98 480.085C1721.53 480.325 1721.21 480.609 1721.02 480.936C1720.83 481.259 1720.78 481.625 1720.84 482.032C1720.91 482.429 1721.09 482.865 1721.39 483.34L1721.59 483.655C1721.89 484.144 1722.22 484.517 1722.57 484.774C1722.91 485.025 1723.28 485.16 1723.67 485.179C1724.06 485.188 1724.48 485.073 1724.94 484.833C1725.29 484.645 1725.56 484.424 1725.75 484.17C1725.94 483.916 1726.03 483.64 1726.04 483.341C1726.04 483.042 1725.94 482.73 1725.73 482.404L1727.26 481.594C1727.64 482.211 1727.82 482.798 1727.8 483.355C1727.77 483.909 1727.58 484.418 1727.21 484.885C1726.84 485.344 1726.34 485.742 1725.7 486.08ZM1730.14 483.559L1725.78 476.578L1731.59 473.494L1732.37 474.736L1728.15 476.975L1729.12 478.532L1732.85 476.551L1733.62 477.783L1729.89 479.763L1730.95 481.463L1735.23 479.19L1736.02 480.441L1730.14 483.559Z" fill="black"/>
<path d="M942.744 762.368L940.971 745.999L949.503 745.215C950.682 745.106 951.686 745.239 952.515 745.612C953.358 745.969 954.022 746.526 954.507 747.285C955.005 748.026 955.313 748.938 955.43 750.019C955.547 751.101 955.435 752.067 955.092 752.918C954.764 753.752 954.218 754.428 953.454 754.948C952.689 755.469 951.718 755.783 950.539 755.891L945.687 756.338L946.305 762.04L942.744 762.368ZM945.372 753.427L949.746 753.024C950.494 752.955 951.045 752.688 951.396 752.222C951.764 751.754 951.907 751.139 951.824 750.375C951.767 749.85 951.632 749.421 951.419 749.087C951.206 748.753 950.914 748.507 950.543 748.348C950.187 748.188 949.747 748.132 949.221 748.181L944.848 748.583L945.372 753.427ZM966.69 760.454C964.953 760.614 963.422 760.442 962.096 759.937C960.77 759.433 959.704 758.583 958.899 757.388C958.094 756.192 957.589 754.648 957.384 752.755C957.176 750.831 957.339 749.217 957.874 747.915C958.407 746.597 959.27 745.577 960.463 744.857C961.655 744.121 963.119 743.673 964.855 743.513C966.624 743.351 968.163 743.522 969.473 744.029C970.797 744.517 971.862 745.359 972.667 746.554C973.471 747.733 973.977 749.285 974.185 751.21C974.39 753.103 974.226 754.709 973.693 756.027C973.16 757.345 972.297 758.372 971.106 759.108C969.93 759.843 968.458 760.292 966.69 760.454ZM966.374 757.543C967.155 757.472 967.828 757.297 968.394 757.02C968.959 756.743 969.417 756.364 969.767 755.882C970.117 755.4 970.361 754.831 970.499 754.176C970.636 753.505 970.659 752.755 970.57 751.928L970.49 751.189C970.398 750.345 970.214 749.607 969.936 748.974C969.658 748.341 969.297 747.828 968.852 747.435C968.406 747.026 967.876 746.738 967.262 746.569C966.648 746.401 965.951 746.353 965.171 746.424C964.406 746.495 963.741 746.668 963.175 746.945C962.61 747.222 962.152 747.602 961.802 748.084C961.45 748.55 961.206 749.119 961.07 749.79C960.949 750.46 960.934 751.216 961.026 752.059L961.106 752.799C961.195 753.626 961.371 754.357 961.633 754.991C961.909 755.609 962.27 756.122 962.717 756.53C963.163 756.939 963.693 757.228 964.307 757.396C964.92 757.565 965.61 757.614 966.374 757.543ZM977.962 759.128L976.19 742.76L979.751 742.433L981.195 755.771L989.464 755.01L989.792 758.04L977.962 759.128ZM992.082 757.83L990.31 741.461L993.871 741.134L995.643 757.502L992.082 757.83ZM1006.64 756.78C1004.93 756.937 1003.44 756.777 1002.17 756.299C1000.89 755.806 999.868 754.961 999.095 753.763C998.338 752.563 997.854 750.993 997.644 749.052C997.334 746.189 997.805 744.001 999.057 742.488C1000.32 740.958 1002.24 740.075 1004.8 739.839C1006.21 739.71 1007.49 739.833 1008.66 740.207C1009.82 740.582 1010.78 741.217 1011.52 742.113C1012.28 743.007 1012.73 744.178 1012.89 745.626L1009.3 745.956C1009.22 745.192 1008.99 744.562 1008.62 744.067C1008.26 743.57 1007.78 743.212 1007.17 742.995C1006.58 742.76 1005.92 742.677 1005.17 742.746C1004.15 742.839 1003.32 743.116 1002.7 743.575C1002.09 744.033 1001.67 744.666 1001.43 745.475C1001.21 746.266 1001.16 747.219 1001.28 748.332L1001.36 749.072C1001.49 750.217 1001.75 751.165 1002.15 751.915C1002.55 752.649 1003.1 753.186 1003.78 753.525C1004.47 753.847 1005.33 753.961 1006.35 753.867C1007.14 753.793 1007.82 753.594 1008.38 753.27C1008.94 752.945 1009.35 752.506 1009.62 751.952C1009.88 751.397 1009.97 750.738 1009.88 749.975L1013.33 749.658C1013.48 751.106 1013.29 752.336 1012.76 753.349C1012.24 754.361 1011.45 755.156 1010.39 755.736C1009.32 756.3 1008.07 756.648 1006.64 756.78ZM1016.8 755.556L1015.03 739.188L1028.12 737.983L1028.44 740.894L1018.93 741.769L1019.32 745.42L1027.73 744.646L1028.05 747.533L1019.63 748.307L1020.07 752.292L1029.72 751.404L1030.04 754.338L1016.8 755.556Z" fill="black"/>
<path d="M1560.59 686.277L1557.51 668.709L1566.69 667.343C1567.96 667.154 1569.06 667.236 1569.98 667.589C1570.92 667.923 1571.68 668.485 1572.26 669.275C1572.85 670.045 1573.25 671.01 1573.45 672.171C1573.65 673.332 1573.6 674.383 1573.29 675.322C1572.99 676.242 1572.45 677.006 1571.66 677.615C1570.87 678.223 1569.84 678.621 1568.57 678.81L1563.35 679.586L1564.42 685.707L1560.59 686.277ZM1562.8 676.462L1567.51 675.762C1568.31 675.642 1568.89 675.32 1569.24 674.795C1569.6 674.268 1569.71 673.594 1569.57 672.775C1569.47 672.211 1569.29 671.756 1569.04 671.408C1568.79 671.061 1568.45 670.813 1568.04 670.664C1567.64 670.512 1567.16 670.479 1566.6 670.563L1561.89 671.263L1562.8 676.462ZM1586.38 682.757C1584.51 683.035 1582.84 682.941 1581.37 682.477C1579.9 682.013 1578.68 681.16 1577.73 679.918C1576.77 678.676 1576.11 677.039 1575.76 675.008C1575.4 672.942 1575.46 671.189 1575.95 669.751C1576.43 668.295 1577.29 667.142 1578.53 666.291C1579.77 665.424 1581.32 664.851 1583.19 664.573C1585.1 664.29 1586.77 664.382 1588.23 664.849C1589.7 665.296 1590.91 666.141 1591.86 667.383C1592.82 668.607 1593.47 670.252 1593.84 672.318C1594.19 674.35 1594.13 676.094 1593.64 677.55C1593.16 679.006 1592.3 680.167 1591.06 681.035C1589.84 681.9 1588.28 682.473 1586.38 682.757ZM1585.83 679.632C1586.67 679.507 1587.39 679.278 1587.98 678.945C1588.57 678.611 1589.04 678.174 1589.38 677.632C1589.73 677.09 1589.95 676.461 1590.06 675.745C1590.16 675.012 1590.13 674.201 1589.97 673.313L1589.83 672.519C1589.68 671.615 1589.42 670.829 1589.08 670.162C1588.73 669.495 1588.31 668.963 1587.8 668.566C1587.28 668.151 1586.69 667.872 1586.01 667.727C1585.34 667.583 1584.58 667.573 1583.74 667.698C1582.92 667.82 1582.21 668.048 1581.62 668.381C1581.02 668.715 1580.55 669.152 1580.21 669.694C1579.86 670.219 1579.64 670.848 1579.54 671.581C1579.45 672.312 1579.49 673.129 1579.65 674.034L1579.79 674.828C1579.94 675.716 1580.19 676.495 1580.52 677.164C1580.86 677.814 1581.29 678.346 1581.8 678.76C1582.31 679.175 1582.9 679.454 1583.58 679.599C1584.26 679.743 1585.01 679.755 1585.83 679.632ZM1598.49 680.64L1595.41 663.071L1599.24 662.501L1601.75 676.817L1610.65 675.494L1611.22 678.746L1598.49 680.64ZM1613.68 678.38L1610.6 660.811L1614.44 660.241L1617.51 677.81L1613.68 678.38ZM1629.36 676.362C1627.53 676.635 1625.91 676.552 1624.49 676.115C1623.08 675.66 1621.91 674.809 1620.98 673.562C1620.08 672.313 1619.44 670.646 1619.08 668.563C1618.54 665.49 1618.9 663.099 1620.15 661.389C1621.41 659.659 1623.42 658.589 1626.18 658.179C1627.69 657.954 1629.09 658.009 1630.38 658.343C1631.67 658.676 1632.74 659.304 1633.61 660.227C1634.49 661.147 1635.07 662.383 1635.34 663.937L1631.48 664.511C1631.34 663.691 1631.05 663.025 1630.61 662.513C1630.18 661.998 1629.64 661.641 1628.97 661.443C1628.31 661.225 1627.58 661.176 1626.78 661.296C1625.68 661.459 1624.81 661.807 1624.16 662.341C1623.54 662.873 1623.12 663.582 1622.93 664.47C1622.75 665.338 1622.76 666.369 1622.97 667.564L1623.11 668.358C1623.32 669.588 1623.67 670.595 1624.16 671.381C1624.65 672.149 1625.27 672.696 1626.03 673.021C1626.81 673.326 1627.75 673.397 1628.84 673.234C1629.7 673.106 1630.42 672.85 1631 672.466C1631.59 672.081 1632 671.581 1632.25 670.967C1632.49 670.353 1632.54 669.636 1632.4 668.816L1636.1 668.265C1636.37 669.819 1636.25 671.159 1635.75 672.285C1635.26 673.409 1634.46 674.317 1633.35 675.007C1632.24 675.681 1630.91 676.133 1629.36 676.362ZM1640.28 674.424L1637.2 656.855L1651.29 654.758L1651.84 657.883L1641.6 659.405L1642.29 663.324L1651.34 661.977L1651.89 665.076L1642.83 666.423L1643.58 670.7L1653.97 669.154L1654.52 672.304L1640.28 674.424Z" fill="black"/>
</g>
<defs>
<clipPath id="clip0_5_4">
<rect width="1920" height="989" fill="white"/>
</clipPath>
</defs>
</svg>
